<svg xmlns="http://www.w3.org/2000/svg" width="118.186" height="119.114" viewBox="0 0 118.186 119.114">
  <g id="Group_43553" data-name="Group 43553" transform="translate(-411.817 -442.863)">
    <path id="Path_80742" data-name="Path 80742" d="M560.858,483.441c0,4.652.028,9.3-.006,13.956a18.325,18.325,0,0,1-15.59,18.408c-10.43,1.85-20.941-6.367-21.212-16.939-.259-10.094-.186-20.2-.046-30.3.127-9.213,7.283-16.662,16.668-17.7A18.448,18.448,0,0,1,560.2,464.37a23.267,23.267,0,0,1,.635,5.382C560.916,474.314,560.859,478.878,560.858,483.441Z" transform="translate(-72.26 -5.093)" fill="#707070"/>
    <path id="Path_80743" data-name="Path 80743" d="M536.494,649.3v22.677h1.411c2.709,0,5.418-.023,8.127.007,2.737.031,4.6,1.8,4.591,4.287s-1.849,4.205-4.631,4.209q-13.789.02-27.578,0c-2.795,0-4.647-1.68-4.675-4.167-.028-2.558,1.839-4.311,4.674-4.332,3.105-.023,6.211-.005,9.411-.005V649.3c-1.322,0-2.679.007-4.036,0a15.488,15.488,0,0,1-15.405-12.52,26.333,26.333,0,0,1-.315-6.214,4.074,4.074,0,0,1,4.358-3.921,4.181,4.181,0,0,1,4.095,4.211c.049,1.282-.029,2.58.145,3.845a6.911,6.911,0,0,0,6.831,6.073q8.659.081,17.319,0a7.072,7.072,0,0,0,7.01-7.079c.045-1.062-.021-2.129.045-3.189a4.1,4.1,0,0,1,3.744-3.842,4.03,4.03,0,0,1,4.557,3.2c1.719,11.385-5.858,18.984-14.88,19.416C539.742,649.359,538.189,649.3,536.494,649.3Z" transform="translate(-62.034 -118.509)" fill="#707070"/>
    <path id="Path_80744" data-name="Path 80744" d="M430.7,447.285a21.388,21.388,0,0,1-1.236,2.723,58.252,58.252,0,0,0-.3,61.848,8.619,8.619,0,0,1,1.251,2.741,4.2,4.2,0,0,1-7.724,2.854c-2.276-4.193-4.83-8.319-6.447-12.771-7.518-20.7-5.438-40.535,6.116-59.333,1.2-1.957,2.785-2.733,4.632-2.38A4.581,4.581,0,0,1,430.7,447.285Z" transform="translate(0 -0.013)" fill="#707070"/>
    <path id="Path_80745" data-name="Path 80745" d="M710.793,481.424a66.011,66.011,0,0,1-10.531,35.646c-1.508,2.364-4.044,3.053-6.163,1.69-2.061-1.325-2.523-3.876-1.055-6.192a58.18,58.18,0,0,0,.406-62.184,8.1,8.1,0,0,1-1.191-2.623,4.081,4.081,0,0,1,2.589-4.589,4.225,4.225,0,0,1,5.215,1.773,65.8,65.8,0,0,1,7.984,17.3A68.176,68.176,0,0,1,710.793,481.424Z" transform="translate(-180.79 0)" fill="#707070"/>
    <path id="Path_80746" data-name="Path 80746" d="M673.932,511.085a33.055,33.055,0,0,1-6.039,19.358,4.161,4.161,0,0,1-4.644,1.783,4.108,4.108,0,0,1-3.127-3.424,4.805,4.805,0,0,1,1.1-3.706,24,24,0,0,0,.005-26.973,4.929,4.929,0,0,1-1.11-3.706,4.166,4.166,0,0,1,3.258-3.452,4.064,4.064,0,0,1,4.434,1.69,31.783,31.783,0,0,1,5.838,14.909C673.811,508.922,673.869,510.294,673.932,511.085Z" transform="translate(-160.071 -30.941)" fill="#707070"/>
    <path id="Path_80747" data-name="Path 80747" d="M459.962,511.567a32.377,32.377,0,0,1,6.081-18.91,4.2,4.2,0,0,1,5.058-1.587,4.148,4.148,0,0,1,2.629,4.579,5.609,5.609,0,0,1-.848,2.057q-8.858,13.849,0,27.677c1.3,2.034,1.185,4.212-.325,5.711a4.18,4.18,0,0,1-5.257.552,6.183,6.183,0,0,1-1.55-1.609A32.382,32.382,0,0,1,459.962,511.567Z" transform="translate(-31.046 -30.892)" fill="#707070"/>
  </g>
</svg>
