<svg xmlns="http://www.w3.org/2000/svg" width="12.324" height="13.693" viewBox="0 0 12.324 13.693">
  <path id="Icon_material-date-range" data-name="Icon material-date-range" d="M8.608,9.162H7.239v1.369H8.608Zm2.739,0H9.977v1.369h1.369Zm2.739,0H12.716v1.369h1.369Zm1.369-4.793H14.77V3H13.4V4.369H7.923V3H6.554V4.369H5.869A1.363,1.363,0,0,0,4.507,5.739L4.5,15.324a1.369,1.369,0,0,0,1.369,1.369h9.585a1.373,1.373,0,0,0,1.369-1.369V5.739A1.373,1.373,0,0,0,15.455,4.369Zm0,10.955H5.869V7.793h9.585Z" transform="translate(-4.5 -3)" fill="#032545"/>
</svg>
