<svg xmlns="http://www.w3.org/2000/svg" width="27.233" height="27.444" viewBox="0 0 27.233 27.444">
  <g id="male-services-support-icon" transform="translate(0 0.002)">
    <path id="Path_8536" data-name="Path 8536" d="M20.949,8.043a.458.458,0,0,1-.916,0V6.259a4.832,4.832,0,0,0-.494-2.066A5.367,5.367,0,0,0,18.2,2.431,6.727,6.727,0,0,0,13.925.912,6.892,6.892,0,0,0,9.568,2.339,5.933,5.933,0,0,0,8.076,4.1,4,4,0,0,0,7.551,6V8.061l.013,0,.413.511c-.031-.82-.036-1.7,0-2.475a4.774,4.774,0,0,1,.152-.8C8.8,2.906,11.524,1.51,13.9,1.64a6.571,6.571,0,0,1,4.65,2.028c1.519,1.758,1.126,3.924,1.074,6.068h0a.891.891,0,0,1,.65.67,2.78,2.78,0,0,1-.337,1.679h0l-.02.04-1.4,2.309A11.514,11.514,0,0,1,16.69,16.9l-.022.02c.085.132.179.281.275.44.228.368.485.779.733,1.13,1.539,1.159,5.481,1.425,6.979,2.26a4.055,4.055,0,0,1,1.291,1.094c.882,1.166.951,2.778,1.289,4.2a1.424,1.424,0,0,1-1.492,1.394H1.492A1.427,1.427,0,0,1,0,26.048c.337-1.423.4-3.035,1.289-4.2a4.079,4.079,0,0,1,1.291-1.094c1.5-.837,5.445-1.1,6.981-2.262a17.967,17.967,0,0,0,.648-1.885l0-.011h0l.063-.2a.357.357,0,0,1,.029-.067,15.32,15.32,0,0,1-1.184-1.693l-1.2-1.914a1.132,1.132,0,0,1-.27-.051c-.965-.3-1.764-2.448-1.608-3.459.089-.574.293-.779.621-.9a.464.464,0,0,1-.025-.147V6a4.9,4.9,0,0,1,.639-2.334A6.86,6.86,0,0,1,9,1.624,7.812,7.812,0,0,1,13.929,0a7.64,7.64,0,0,1,4.857,1.733A6.3,6.3,0,0,1,20.363,3.8a5.774,5.774,0,0,1,.587,2.461V8.043Zm-4.723,9.244a4.081,4.081,0,0,1-2.508.8,4.039,4.039,0,0,1-2.827-1.132c-.054-.049-.107-.1-.159-.15a11.844,11.844,0,0,1-.9,2.383,20.747,20.747,0,0,0,2.041,5.53l1.085-3.768a1.37,1.37,0,0,1-.212-.616,6.455,6.455,0,0,1-1.778.659,1.66,1.66,0,0,1,0-2.434,7.133,7.133,0,0,1,2.3,1.05,1.157,1.157,0,0,1,.54-.04,16.2,16.2,0,0,1,2.546-1.152,1.59,1.59,0,0,1-.089,2.687,6.9,6.9,0,0,1-1.679-.632,1.522,1.522,0,0,1-.112.48l1.085,3.768a16.79,16.79,0,0,0,1.912-5.525c-.333-.429-.686-.992-.989-1.483l-.259-.418ZM10.209,16.6h0l0-.011h0l0,.011ZM8.583,10.189l.534,1.463a.872.872,0,0,1,.051.444l0,0a6.914,6.914,0,0,0,3.1,1.99.909.909,0,0,1,.277-.366,2.038,2.038,0,0,1,1.827.018.854.854,0,0,1,.078,1.065c-.442.592-2.282.094-2.9-.1a8.745,8.745,0,0,1-2.693-1.762L9.7,14.263a10.462,10.462,0,0,0,1.653,2.171,3.377,3.377,0,0,0,2.358.949,3.482,3.482,0,0,0,2.5-.992,10.926,10.926,0,0,0,1.7-2.32L19.3,11.788a2.2,2.2,0,0,0,.293-1.215c-.036-.138-.188-.205-.447-.219-.056,0-.112,0-.17,0s-.127.007-.194.011a.42.42,0,0,1-.107-.007,2,2,0,0,1-.38-.02l.476-2.1c-3.522.554-6.155-2.059-9.876-.523l.268,2.475a2.188,2.188,0,0,1-.424-.018h0c-.051.009-.1.013-.154.018Z" transform="translate(0 0)" fill="#008eaa"/>
  </g>
</svg>
