<svg xmlns="http://www.w3.org/2000/svg" width="46.066" height="46.422" viewBox="0 0 46.066 46.422">
  <g id="male-services-support-icon" transform="translate(0 0.002)">
    <path id="Path_8536" data-name="Path 8536" d="M35.435,13.606a.774.774,0,0,1-1.549,0V10.588a8.174,8.174,0,0,0-.835-3.494,9.079,9.079,0,0,0-2.27-2.981,11.378,11.378,0,0,0-7.227-2.569,11.658,11.658,0,0,0-7.37,2.414A10.035,10.035,0,0,0,13.66,6.935a6.768,6.768,0,0,0-.888,3.211v3.491l.023-.008.7.865c-.053-1.386-.06-2.875,0-4.186a8.076,8.076,0,0,1,.257-1.349c1.13-4.042,5.742-6.4,9.754-6.184a11.115,11.115,0,0,1,7.865,3.43c2.569,2.973,1.9,6.637,1.817,10.264h0a1.507,1.507,0,0,1,1.1,1.133,4.7,4.7,0,0,1-.57,2.841h0l-.034.068L31.31,24.418a19.476,19.476,0,0,1-3.079,4.174l-.038.034c.144.223.3.476.465.744.385.623.82,1.318,1.239,1.912,2.6,1.961,9.271,2.41,11.805,3.823a6.859,6.859,0,0,1,2.184,1.851c1.492,1.972,1.609,4.7,2.18,7.106a2.408,2.408,0,0,1-2.524,2.357H2.524A2.413,2.413,0,0,1,0,44.062c.57-2.406.684-5.134,2.18-7.106a6.9,6.9,0,0,1,2.184-1.851c2.539-1.417,9.21-1.866,11.809-3.827a30.392,30.392,0,0,0,1.1-3.188l0-.019h0l.106-.336a.6.6,0,0,1,.049-.113,25.914,25.914,0,0,1-2-2.864l-2.036-3.238a1.915,1.915,0,0,1-.457-.087c-1.632-.514-2.984-4.14-2.72-5.852.151-.971.495-1.318,1.05-1.53a.784.784,0,0,1-.042-.249V10.146A8.282,8.282,0,0,1,12.3,6.2a11.6,11.6,0,0,1,2.916-3.449A13.214,13.214,0,0,1,23.562,0,12.924,12.924,0,0,1,31.778,2.93a10.658,10.658,0,0,1,2.667,3.5,9.768,9.768,0,0,1,.994,4.163v3.015Zm-7.99,15.636A6.9,6.9,0,0,1,23.2,30.587a6.833,6.833,0,0,1-4.783-1.915c-.091-.083-.181-.166-.268-.253A20.035,20.035,0,0,1,16.63,32.45c.657,3.778,2.119,6.479,3.453,9.354l1.836-6.373a2.318,2.318,0,0,1-.359-1.043A10.919,10.919,0,0,1,18.552,35.5a2.808,2.808,0,0,1,0-4.118,12.065,12.065,0,0,1,3.895,1.776,1.957,1.957,0,0,1,.914-.068c1.266-.91,2.89-1.269,4.307-1.949,1.681,1.636,1.5,3.143-.151,4.545a11.665,11.665,0,0,1-2.841-1.069,2.574,2.574,0,0,1-.189.812L26.323,41.8c1.42-2.988,2.9-5.954,3.234-9.346-.563-.725-1.16-1.677-1.674-2.508l-.438-.706ZM17.268,28.086h0l0-.019h0l0,.019Zm-2.75-10.85.9,2.474a1.476,1.476,0,0,1,.087.752l.008-.008a11.7,11.7,0,0,0,5.251,3.366,1.537,1.537,0,0,1,.468-.62,3.447,3.447,0,0,1,3.09.03,1.445,1.445,0,0,1,.132,1.8c-.748,1-3.861.159-4.9-.178A14.792,14.792,0,0,1,15,21.876l1.417,2.252a17.7,17.7,0,0,0,2.8,3.672A5.712,5.712,0,0,0,23.2,29.4a5.889,5.889,0,0,0,4.224-1.677A18.481,18.481,0,0,0,30.3,23.8l2.342-3.861a3.72,3.72,0,0,0,.495-2.055c-.06-.234-.317-.348-.756-.37-.094,0-.189,0-.287,0s-.215.011-.329.019a.71.71,0,0,1-.181-.011,3.378,3.378,0,0,1-.642-.034l.8-3.551c-5.957.937-10.411-3.483-16.705-.884l.453,4.186a3.7,3.7,0,0,1-.718-.03h0c-.087.015-.178.023-.261.03Z" fill="#fe5000"/>
  </g>
</svg>
