<svg xmlns="http://www.w3.org/2000/svg" width="50.365" height="46.484" viewBox="0 0 50.365 46.484">
  <g id="Group_43581" data-name="Group 43581" transform="translate(-321.691 -485.163)">
    <path id="Path_80793" data-name="Path 80793" d="M343.627,485.174c4.538,0,9.076-.029,13.614.009a8.288,8.288,0,0,1,8.095,6.467,8.382,8.382,0,0,1,.208,1.916c.014,7.8.034,15.61,0,23.415a8.293,8.293,0,0,1-8.309,8.2q-13.583.051-27.166,0a8.329,8.329,0,0,1-8.375-8.512c.008-7.684-.02-15.368.011-23.052a8.3,8.3,0,0,1,8.489-8.443C334.672,485.159,339.15,485.174,343.627,485.174Zm-6.456,19.332h0c0,2.278.01,4.556,0,6.834a2.025,2.025,0,0,0,1,1.987,2.063,2.063,0,0,0,2.269-.22q5.688-3.67,11.391-7.315a1.346,1.346,0,0,0,0-2.514q-5.721-3.674-11.444-7.344a2.025,2.025,0,0,0-2.217-.187,1.969,1.969,0,0,0-1,1.926C337.179,499.949,337.171,502.227,337.171,504.505Z" fill="#fe5000"/>
    <path id="Path_80794" data-name="Path 80794" d="M385.929,584.587h8.6c6.859,0,13.718.017,20.577-.006a9.7,9.7,0,0,0,9.534-9.745q0-12.164.005-24.329v-.593l.161-.124a23.447,23.447,0,0,1,1.778,1.731,8.053,8.053,0,0,1,1.9,5.3c.011,6.112.077,12.226-.019,18.337a13.387,13.387,0,0,1-10.674,12.968,14.266,14.266,0,0,1-3,.308c-7.2.026-14.4.017-21.606.016a8.323,8.323,0,0,1-6.835-3.27C386.231,585.024,386.123,584.858,385.929,584.587Z" transform="translate(-56.462 -56.803)" fill="#fe5000"/>
  </g>
</svg>
