<svg xmlns="http://www.w3.org/2000/svg" width="50.402" height="45.921" viewBox="0 0 50.402 45.921">
  <g id="Group_43579" data-name="Group 43579" transform="translate(-363.445 -539.272)">
    <path id="Path_80773" data-name="Path 80773" d="M394.582,578.874c.564,1.552,1.032,2.919,1.575,4.256a1.08,1.08,0,0,0,.769.448c.565.077,1.161-.038,1.712.081.274.059.693.5.656.695a1.456,1.456,0,0,1-.712.774c-.2.12-.527.035-.8.035q-8.967,0-17.935,0a2.261,2.261,0,0,1-.9-.048c-.262-.123-.621-.45-.6-.66.024-.284.35-.556.581-.8a.5.5,0,0,1,.391-.047c1.389.285,1.977-.417,2.284-1.678a30.92,30.92,0,0,1,1.086-3.056h-1.247q-6.738,0-13.476,0c-2.921,0-4.517-1.592-4.518-4.5q-.006-15.3,0-30.6c0-2.877,1.63-4.5,4.532-4.5q20.619-.008,41.239,0c2.9,0,4.613,1.681,4.617,4.576q.022,15.249,0,30.5c0,2.932-1.6,4.516-4.509,4.521q-6.738.011-13.476,0Zm-29.552-8.321h47.09c.018-.4.046-.731.046-1.062q0-12.765,0-25.529c0-2.264-.855-3.122-3.12-3.122q-20.464,0-40.928,0c-2.273,0-3.087.832-3.087,3.136q0,12.714,0,25.428Zm23.9,5.666,1.114-1.207c-.362-.259-.693-.652-1.094-.745-.556-.13-1.171.114-1.088.8C387.905,575.406,388.42,575.69,388.932,576.219Z" transform="translate(0 0)" fill="#fe5000"/>
    <path id="Path_80774" data-name="Path 80774" d="M490.4,595.515c1.822,0,3.532,0,5.241,0,1.332,0,1.509.205,1.411,1.557a7.46,7.46,0,1,1-7.915-8.22c.914-.07,1.295.262,1.274,1.2C490.368,591.83,490.4,593.61,490.4,595.515Z" transform="translate(-94.659 -39.524)" fill="#fe5000"/>
    <path id="Path_80775" data-name="Path 80775" d="M398.079,580.271c-.405-.062-.655-.028-.789-.137a7.574,7.574,0,0,1-.767-.82c.314-.244.62-.683.943-.7a11.705,11.705,0,0,1,2.615.222,1.02,1.02,0,0,1,.631.749,17.31,17.31,0,0,1-.226,2.82c-.04.252-.486.675-.626.632a2.922,2.922,0,0,1-1.282-1.065c-.81.9-1.626,1.8-2.428,2.71a1.1,1.1,0,0,1-1.532.239c-.676-.38-1.417-.659-2.049-1.1-.72-.5-1.156-.3-1.7.286-1.2,1.282-2.474,2.492-3.71,3.739-.424.428-.88.7-1.394.2-.5-.489-.171-.911.2-1.3,1.53-1.62,3.068-3.234,4.579-4.872a1.109,1.109,0,0,1,1.526-.234c.977.513,1.982.973,2.975,1.456Z" transform="translate(-17.592 -31.365)" fill="#fe5000"/>
    <path id="Path_80776" data-name="Path 80776" d="M527.218,567.007a7.558,7.558,0,0,1,5.984,3.209.824.824,0,0,1-.252,1.353c-1.731,1.114-3.445,2.255-5.188,3.351-.893.562-1.409.266-1.421-.8-.021-1.959.022-3.918-.019-5.877C526.3,567.314,526.649,566.91,527.218,567.007Z" transform="translate(-129.86 -22.101)" fill="#fe5000"/>
    <path id="Path_80777" data-name="Path 80777" d="M537.816,598.5c-1.011,0-2.027.059-3.03-.029-.39-.034-.751-.4-1.125-.612.2-.315.332-.735.616-.928,1.643-1.116,3.33-2.167,4.985-3.265.669-.444,1.276-.423,1.574.331a24.455,24.455,0,0,1,1.067,3.424c.175.747-.287,1.1-1.056,1.086C539.838,598.479,538.827,598.5,537.816,598.5Z" transform="translate(-135.712 -43.131)" fill="#fe5000"/>
    <path id="Path_80778" data-name="Path 80778" d="M398.978,673.373H392.7c-.553,0-1.164.029-1.178-.749-.013-.748.559-.828,1.133-.828q6.327,0,12.655,0c.54,0,1.063.087,1.073.779.011.771-.553.8-1.13.8C403.163,673.37,401.071,673.373,398.978,673.373Z" transform="translate(-22.387 -105.659)" fill="#fe5000"/>
    <path id="Path_80779" data-name="Path 80779" d="M454.516,614.379c0,1.486,0,2.972,0,4.458,0,.534-.156,1.051-.751.929a1.249,1.249,0,0,1-.776-.907q-.09-4.507,0-9.017a1.252,1.252,0,0,1,.737-.952c.61-.079.8.453.8,1.03C454.509,611.407,454.516,612.893,454.516,614.379Z" transform="translate(-71.358 -55.501)" fill="#fe5000"/>
    <path id="Path_80780" data-name="Path 80780" d="M414.515,618.071c0-1.314.006-2.627,0-3.941,0-.582.194-1.1.825-.971a1.26,1.26,0,0,1,.74.945c.06,2.693.033,5.389.034,8.083,0,.573-.189,1.106-.829.969a1.272,1.272,0,0,1-.732-.945C414.466,620.836,414.515,619.452,414.515,618.071Z" transform="translate(-40.706 -58.894)" fill="#fe5000"/>
    <path id="Path_80781" data-name="Path 80781" d="M433.5,624.1c0-1.143,0-2.285,0-3.428,0-.578.205-1.1.828-.973a1.267,1.267,0,0,1,.735.955c.065,2.25.033,4.5.034,6.755,0,.573-.195,1.1-.832.962a1.284,1.284,0,0,1-.728-.946C433.445,626.327,433.5,625.213,433.5,624.1Z" transform="translate(-55.843 -64.111)" fill="#fe5000"/>
    <path id="Path_80782" data-name="Path 80782" d="M395.468,631.842a16.474,16.474,0,0,1,.038-2.416c.051-.341.513-.621.788-.929.255.3.717.584.73.891.072,1.712.077,3.431,0,5.142-.015.317-.518.612-.8.917-.253-.327-.681-.633-.725-.986A21.347,21.347,0,0,1,395.468,631.842Z" transform="translate(-25.51 -71.139)" fill="#fe5000"/>
    <path id="Path_80783" data-name="Path 80783" d="M553.14,675.8c-.875,0-1.751,0-2.626,0-.542,0-1.134-.106-.992-.786a1.272,1.272,0,0,1,.958-.726c1.781-.073,3.567-.031,5.352-.036.528,0,.959.127.974.752s-.413.788-.939.792C554.958,675.8,554.049,675.795,553.14,675.8Z" transform="translate(-148.341 -107.609)" fill="#fe5000"/>
    <path id="Path_80784" data-name="Path 80784" d="M557.77,660.657a9.133,9.133,0,0,1-1.7-.032c-.27-.052-.693-.471-.662-.663.048-.3.407-.767.659-.784a28.017,28.017,0,0,1,3.611,0,.952.952,0,0,1,.6.716.963.963,0,0,1-.609.716,11.5,11.5,0,0,1-1.9.034Z" transform="translate(-153.048 -95.556)" fill="#fe5000"/>
    <path id="Path_80785" data-name="Path 80785" d="M485.616,556.276c-.567.344-.9.7-1.166.664-.287-.042-.517-.463-.772-.719.268-.244.52-.657.808-.684C484.757,555.511,485.066,555.894,485.616,556.276Z" transform="translate(-95.861 -12.967)" fill="#fe5000"/>
  </g>
</svg>
