<svg xmlns="http://www.w3.org/2000/svg" width="62.983" height="43.505" viewBox="0 0 62.983 43.505">
  <g id="Group_43580" data-name="Group 43580" transform="translate(-401.222 -590.159)">
    <path id="Path_80786" data-name="Path 80786" d="M450.754,611.529a59.232,59.232,0,0,1-.313,5.918,6.018,6.018,0,0,1-6.273,5.249c-5.453.009-10.906.042-16.358-.02a4.936,4.936,0,0,0-4.076,1.832c-2.331,2.7-4.746,5.325-7.095,8.009a2.413,2.413,0,0,1-2.905.966,2.562,2.562,0,0,1-1.372-3q.549-3.27,1.219-6.52c.205-1-.1-1.326-1.11-1.282-1.514.067-3.033.019-4.55.017-3.768-.006-6.553-2.5-6.617-6.282q-.167-9.959,0-19.924c.057-3.8,2.786-6.286,6.585-6.289,12.053-.007,24.107.074,36.16-.044,4.246-.042,6.688,3.433,6.594,7.088a2.274,2.274,0,0,1-.724,1.314c-3.08,3.124-6.233,6.177-9.263,9.347a9.011,9.011,0,0,0-1.639,2.906,19.67,19.67,0,0,0-.769,3.094c-.469,2.151.938,3.566,3.07,3.1a1.156,1.156,0,0,1,.118-.035,11.222,11.222,0,0,0,8.1-4.492,5.89,5.89,0,0,1,.7-.689A3.916,3.916,0,0,1,450.754,611.529Zm-27.11-2.337h-7.491c-1.883,0-3.769-.052-5.646.045a1.543,1.543,0,0,0-1.152.893c-.153.742.463,1.04,1.17,1.047l.368,0q12.832,0,25.665,0c.732,0,1.524-.028,1.559-.959.04-1.055-.816-1.034-1.579-1.033Q430.091,609.195,423.644,609.191Zm-.461,5.472c-4.181,0-8.362-.029-12.542.042a1.677,1.677,0,0,0-1.277.922c-.2.748.438,1.028,1.151,1.028,8.362,0,16.724.011,25.085-.041a1.54,1.54,0,0,0,1.173-.889c.14-.715-.45-1.06-1.171-1.06l-.861,0Zm-13.922-13.171c0,1.228,0,2.456,0,3.684a1.075,1.075,0,0,0,1.208,1.214c1.023,0,2.049.047,3.07-.009a2.93,2.93,0,0,0,2.382-4.694,1.928,1.928,0,0,1-.2-1.293,2.949,2.949,0,0,0-2.9-3.769c-.736-.028-1.474.016-2.21-.012-.933-.036-1.36.4-1.351,1.318C409.266,599.118,409.258,600.3,409.262,601.492Zm31.18.883a3.271,3.271,0,0,1-.187.632,2.8,2.8,0,0,1-3.959.93,2.955,2.955,0,0,1-.773-4.126,2.8,2.8,0,0,1,4.012-.623c.621.444,1.234.846,1.793.077s-.075-1.282-.641-1.711a4.784,4.784,0,0,0-7.569,2.967,4.65,4.65,0,0,0,1.745,4.82,4.795,4.795,0,0,0,7.764-3.553c.044-.763-.2-1.328-1.033-1.371a13.26,13.26,0,0,0-2.819.042c-.37.061-.651.669-.972,1.029.332.3.62.721,1.008.853A5.736,5.736,0,0,0,440.441,602.375Zm-8.4-.859a4.808,4.808,0,1,0-9.614.03,4.824,4.824,0,0,0,4.834,4.84A4.769,4.769,0,0,0,432.046,601.516Zm-12.64,2.888c0-2.276.006-4.4,0-6.518,0-.685-.262-1.344-1.03-1.189a1.532,1.532,0,0,0-.921,1.13c-.085,2.458-.042,4.919-.041,7.38a1.026,1.026,0,0,0,1.111,1.175,31.514,31.514,0,0,0,3.685-.037c.421-.044.788-.614,1.179-.944-.393-.332-.748-.871-1.187-.952A16.436,16.436,0,0,0,419.406,604.4Z" fill="#fe5000"/>
    <path id="Path_80787" data-name="Path 80787" d="M574.271,627.684l-3.655-3.673,13.6-13.551,3.621,3.6Z" transform="translate(-127.714 -15.305)" fill="#fe5000"/>
    <path id="Path_80788" data-name="Path 80788" d="M635.93,600l-3.953-3.962c1.079-.716,1.655-2.692,3.267-2.152a5.133,5.133,0,0,1,2.832,2.786C638.659,598.3,636.653,598.873,635.93,600Z" transform="translate(-173.977 -2.741)" fill="#fe5000"/>
    <path id="Path_80789" data-name="Path 80789" d="M559.994,672.537l3.706,3.685-4.806,1.133Z" transform="translate(-118.875 -62.108)" fill="#fe5000"/>
    <path id="Path_80790" data-name="Path 80790" d="M442.281,642.226v-1.814a13.621,13.621,0,0,1,2.323.041.87.87,0,0,1,0,1.732A13.149,13.149,0,0,1,442.281,642.226Z" transform="translate(-30.956 -37.865)" fill="#fe5000"/>
    <path id="Path_80791" data-name="Path 80791" d="M442.285,623.73a21.393,21.393,0,0,1,2.317.682c.111.045.1.887-.025.935a20.1,20.1,0,0,1-2.292.639Z" transform="translate(-30.959 -25.31)" fill="#fe5000"/>
    <path id="Path_80792" data-name="Path 80792" d="M501.137,627.474a2.777,2.777,0,0,1-2.9,2.826,2.882,2.882,0,0,1,.11-5.762A2.781,2.781,0,0,1,501.137,627.474Z" transform="translate(-71.074 -25.919)" fill="#fe5000"/>
  </g>
</svg>
