<svg xmlns="http://www.w3.org/2000/svg" width="52.405" height="44.183" viewBox="0 0 52.405 44.183">
  <g id="layer2" transform="translate(-11.942 -62.982)">
    <g id="g4516" transform="translate(13.942 64.982)">
      <path id="path4513-6" d="M4131.836-471.755c-1.741,0-3.153,1.729-3.153,3.862a3.638,3.638,0,0,0,3.153,3.862l23.455,5.152,21.073-11.86" transform="translate(-4128.683 499.062)" fill="none" stroke="#fe5000" stroke-linecap="round" stroke-linejoin="round" stroke-width="4"/>
      <path id="path4513-6-7" d="M4131.836-510.1c-1.741,0-3.153,1.729-3.153,3.862a3.638,3.638,0,0,0,3.153,3.862l23.455,5.152,21.073-11.86" transform="translate(-4128.683 529.679)" fill="none" stroke="#fe5000" stroke-linecap="round" stroke-linejoin="round" stroke-width="4"/>
      <path id="path4513-6-7-5-3" d="M4131.836-548.438c-1.741,0-3.153,1.729-3.153,3.862a3.638,3.638,0,0,0,3.153,3.862l11.441,2.513m0,0,12.014,2.639,21.073-11.86" transform="translate(-4128.683 560.296)" fill="none" stroke="#fe5000" stroke-linecap="round" stroke-linejoin="round" stroke-width="4"/>
      <path id="path4513-6-7-5-3-5" d="M4163.093-607.3l-21.641,11.859,24.022,5.152,21.073-11.859Z" transform="translate(-4138.879 607.298)" fill="#fe5000" stroke="#fe5000" stroke-linecap="round" stroke-linejoin="round" stroke-width="4"/>
    </g>
  </g>
</svg>
