<svg xmlns="http://www.w3.org/2000/svg" width="47.033" height="36.343" viewBox="0 0 47.033 36.343">
  <g id="sound-full-icon" transform="translate(0 -0.005)">
    <path id="Path_80795" data-name="Path 80795" d="M1.937,7.956H9.848a.3.3,0,0,1,.3.3V25.375a.3.3,0,0,1-.3.3H1.933A1.943,1.943,0,0,1,0,23.74V9.9a1.945,1.945,0,0,1,1.937-1.94ZM41.772.409a28.588,28.588,0,0,1-.861,34.213c-.237.314-.478.624-.727.93l-.019-.019c-.119.138-.237.276-.36.41l-.36.406-.352-.413-1.428-1.676-.264-.31.268-.306A25.471,25.471,0,0,0,39.793,3.05l-.008-.008c-.26-.379-.532-.754-.815-1.118L39,1.9l-.019-.027.371-.276.272-.2L40.662.554,40.7.6l.4-.3.39-.291.283.4Zm-.214,1.378c-.1-.145-.188-.287-.287-.429l-.011.008c.1.138.2.279.3.421ZM35.5,4.669a21.467,21.467,0,0,1-.9,25.762l-.36.444-.371-.436-1.807-1.259-.253-.295.237-.306a19.808,19.808,0,0,0,2.974-4.727,18.633,18.633,0,0,0,.961-5.312A18.8,18.8,0,0,0,33.015,6.67c-.142-.2-.287-.406-.44-.6l.019-.015L32.418,5.8l.367-.272,2.044-.968.394-.291.276.4ZM34.385,5.794l-.119-.18-.008,0,.126.176ZM11.865,7.643Q18.777,3.848,25.693.057c.444-.241.919.413.919.919v31.4c0,.532-.505,1.229-.968.968L11.865,25.57c-.088-.05-.184-.08-.184-.184V7.826c0-.1.1-.134.184-.184Z" transform="translate(0 0)" fill="#fe5000" fill-rule="evenodd"/>
  </g>
</svg>
