<svg xmlns="http://www.w3.org/2000/svg" width="57.75" height="56.152" viewBox="0 0 57.75 56.152">
  <g id="Group_43578" data-name="Group 43578" transform="translate(-70.483 -239.044)">
    <path id="Path_80751" data-name="Path 80751" d="M200.221,569.875q-.092.808-.183,1.617a29.131,29.131,0,0,1-1.5,6.262,34.77,34.77,0,0,1-2.26,5.163A17.581,17.581,0,0,1,192,587.934a24.865,24.865,0,0,1-10.932,5.207,34.6,34.6,0,0,1-8.729.7,30.445,30.445,0,0,1-9.573-1.814,22.485,22.485,0,0,1-10.736-7.923,21.423,21.423,0,0,1-2.263-4.509,31.391,31.391,0,0,1-1.925-6.755,18.282,18.282,0,0,1-.317-4.091,6,6,0,0,1,1.715-3.687,20.135,20.135,0,0,1,1.6-1.49.348.348,0,0,1,.323-.033c.731.451,1.451.921,2.19,1.4-.31.252-.622.482-.906.742a6.309,6.309,0,0,0-.715.758,2.716,2.716,0,0,0,.006,3.569,7.9,7.9,0,0,0,2.715,2.1,27.463,27.463,0,0,0,7.025,2.344,53.665,53.665,0,0,0,6.711.964,69.476,69.476,0,0,0,7.111.214,61.506,61.506,0,0,0,8.128-.67,35.092,35.092,0,0,0,8.489-2.223,10.7,10.7,0,0,0,3.724-2.354,3.056,3.056,0,0,0,.988-2.332,2.974,2.974,0,0,0-.7-1.689,8.073,8.073,0,0,0-2.788-2.114,29.222,29.222,0,0,0-7.9-2.482c-.223-.042-.445-.087-.646-.126v-3.03c1.2.3,2.354.565,3.495.874A28.955,28.955,0,0,1,194.471,562a13.546,13.546,0,0,1,4.394,3.535,6,6,0,0,1,1.307,3.115.438.438,0,0,0,.049.118Z" transform="translate(-71.989 -298.678)" fill="#fe5000"/>
    <path id="Path_80752" data-name="Path 80752" d="M404.719,495.736c.594,1.025,1.208,2.038,1.776,3.077,1.189,2.174,2.351,4.363,3.528,6.544a8.367,8.367,0,0,0,.443.723.511.511,0,0,0,.242.19,5.576,5.576,0,0,1,2.1,1.18,3.99,3.99,0,0,0-.849-1.482,7.685,7.685,0,0,1-2.16-3.222,13.583,13.583,0,0,0-1.162-2.322c-1.157-1.905-2.277-3.834-3.417-5.75-.25-.42-.527-.825-.79-1.238a.506.506,0,0,1-.1-.33c.507.756,1.028,1.5,1.517,2.269,1.239,1.945,2.458,3.9,3.7,5.846a2.414,2.414,0,0,0,.5.44l.1-.088-1.166-2.5.054-.027c.369.716.752,1.426,1.1,2.153a1.479,1.479,0,0,0,.7.715,5.525,5.525,0,0,1,2.777,3.8,14.915,14.915,0,0,1,.21,1.6l-.8-.512a45.314,45.314,0,0,1,2.493,6.608c-.33.125-.532.067-.582-.3a1.149,1.149,0,0,0-.586-.832c-.517-.337-.991-.738-1.54-1.1a11.019,11.019,0,0,0,.611,1.033c.318.43.685.825,1.032,1.234l-.063.107-3.724.14a6,6,0,0,1-.2-2.529,1.421,1.421,0,0,0-.18-1.013c-.274-.438-.51-.9-.79-1.349a9.957,9.957,0,0,1-.055,4.12c-.461-.492-.909-.913-1.29-1.388a8.307,8.307,0,0,1-1.816-4.231,6.075,6.075,0,0,1,.293-2.671.817.817,0,0,0-.018-.522,48.986,48.986,0,0,0-3.44-6.621q-1.458-2.417-2.924-4.829a.563.563,0,0,1-.072-.176c4,5.551,7.08,11.654,10.5,17.61.131-.343.261-.64.354-.948a.656.656,0,0,0-.063-.34,29.146,29.146,0,0,0-2.8-5.98c-1.121-1.889-2.2-3.8-3.3-5.7-.024-.042-.043-.087-.065-.131l.07-.042,2.062,3.18.041-.02-2.316-4.346Z" transform="translate(-308.131 -236.883)" fill="#fe5000"/>
    <path id="Path_80753" data-name="Path 80753" d="M261.422,654.037a10.987,10.987,0,0,1-5.892-2.134,11.6,11.6,0,0,1-1.463-1.248,11.344,11.344,0,0,0-2.032-1.512c-2.033-1.344-4.047-2.716-6.08-4.06-1.007-.666-2.038-1.293-3.059-1.938a.511.511,0,0,1-.2-.188,2.475,2.475,0,0,1,.292.133q3.237,1.991,6.47,3.987c1.323.818,2.641,1.645,3.966,2.459a.65.65,0,0,0,.393.09c3.046-.4,5.244.968,6.962,3.33C261.022,653.284,261.2,653.66,261.422,654.037Z" transform="translate(-160.96 -377.512)" fill="#fe5000"/>
    <path id="Path_80754" data-name="Path 80754" d="M342.82,465.974a8.492,8.492,0,0,1-2.238-2.461,6.574,6.574,0,0,1-1.021-3.975,4.761,4.761,0,0,1,.159-.9.858.858,0,0,0-.079-.68,55.3,55.3,0,0,0-3.96-6.48q-1.136-1.654-2.277-3.306a.16.16,0,0,1-.023-.139.609.609,0,0,1,.1.088c1.619,2.266,3.258,4.517,4.842,6.807.6.864,1.053,1.826,1.6,2.727a12.543,12.543,0,0,0,.877,1.211,9.26,9.26,0,0,1,2.123,4.931c.064.71.01,1.43.01,2.145Z" transform="translate(-245.71 -195.331)" fill="#fe5000"/>
    <path id="Path_80755" data-name="Path 80755" d="M213.145,590.577a9.879,9.879,0,0,1-6.235-2.423,26.774,26.774,0,0,0-3.457-2.485c-1.943-1.22-3.852-2.494-5.783-3.734-.684-.439-1.389-.847-2.051-1.33.469.256.948.5,1.405.771,2.048,1.236,4.087,2.486,6.134,3.722.828.5,1.662.992,2.511,1.454a1.105,1.105,0,0,0,.621.021,6.269,6.269,0,0,1,4.765,1.44A7.523,7.523,0,0,1,213.145,590.577Z" transform="translate(-116.957 -319.236)" fill="#fe5000"/>
    <path id="Path_80756" data-name="Path 80756" d="M627.3,514.519a7.415,7.415,0,0,1,.258-5.923,10.842,10.842,0,0,1,1.18-1.545.836.836,0,0,0,.185-.352,35.72,35.72,0,0,0,.253-6.125c-.047-1.785-.124-3.569-.185-5.353a2.9,2.9,0,0,1,.035-.612c.068.855.155,1.709.2,2.565.1,1.978.222,3.957.256,5.936.021,1.194-.116,2.39-.16,3.586a8.145,8.145,0,0,0,.079,1.039,8.506,8.506,0,0,1-1.013,5.229C628.086,513.485,627.7,513.959,627.3,514.519Z" transform="translate(-519.969 -238.861)" fill="#fe5000"/>
    <path id="Path_80757" data-name="Path 80757" d="M267.265,416.142a7.323,7.323,0,0,1-3.358-4.731,7.1,7.1,0,0,1-.007-1.809,1.073,1.073,0,0,0-.118-.672,56.756,56.756,0,0,0-4.544-6.369c-.628-.792-1.243-1.594-1.9-2.438.078.023.108.022.119.036a83.332,83.332,0,0,1,5.885,7.446,19.511,19.511,0,0,0,1.823,2.413A7.975,7.975,0,0,1,267.265,416.142Z" transform="translate(-174.643 -150.55)" fill="#fe5000"/>
    <path id="Path_80758" data-name="Path 80758" d="M145.463,518.7c.188.1.382.189.565.3q3.323,1.944,6.644,3.89c.676.394,1.362.773,2.051,1.145a.709.709,0,0,0,.425.095,5.949,5.949,0,0,1,5.206,1.671,5.76,5.76,0,0,1,1.4,1.862,8.793,8.793,0,0,1-5.629-2.03,34.374,34.374,0,0,0-4.262-2.873q-3.187-1.981-6.379-3.954a.316.316,0,0,1-.047-.044Z" transform="translate(-70.052 -261.376)" fill="#fe5000"/>
    <path id="Path_80759" data-name="Path 80759" d="M611.931,460.291c-1.034-2.117-.887-5.249.88-6.953a.519.519,0,0,0,.151-.3,35.168,35.168,0,0,0-.1-5.513c-.116-1.421-.239-2.841-.361-4.261a3.866,3.866,0,0,1-.012-.877c.07.569.147,1.137.209,1.707.188,1.719.409,3.435.542,5.158.091,1.18.039,2.371.085,3.556.021.551.127,1.1.187,1.65A7.551,7.551,0,0,1,611.931,460.291Z" transform="translate(-505.455 -190.05)" fill="#fe5000"/>
    <path id="Path_80760" data-name="Path 80760" d="M185.527,367.313c-1.833-.892-3.785-3.2-3.562-5.607a1.185,1.185,0,0,0-.218-.846,62.98,62.98,0,0,0-5.032-6.04q-.8-.892-1.607-1.781l-.068.071c.607.55,1.244,1.07,1.815,1.655a52.1,52.1,0,0,1,5.327,6.128,6.077,6.077,0,0,0,.77.749,7.86,7.86,0,0,1,2.448,4.392C185.468,366.448,185.484,366.869,185.527,367.313Z" transform="translate(-97.723 -106.544)" fill="#fe5000"/>
    <path id="Path_80761" data-name="Path 80761" d="M110.69,465.944a9.221,9.221,0,0,1-6.221-2.49,12.627,12.627,0,0,0-1.737-1.136q-3.014-1.852-6.038-3.689a9.674,9.674,0,0,1-1.045-.674c.084.042.171.079.253.126q3.313,1.89,6.626,3.781.765.435,1.546.842a.674.674,0,0,0,.4.077,5.579,5.579,0,0,1,5.037,1.724A15.27,15.27,0,0,1,110.69,465.944Z" transform="translate(-23.521 -204.603)" fill="#fe5000"/>
    <path id="Path_80762" data-name="Path 80762" d="M70.515,360.808c.151.1.3.187.452.286a88.674,88.674,0,0,1,8.122,6.072,1.285,1.285,0,0,0,.681.236,3.98,3.98,0,0,1,3.631,3.587c.008.105.033.209.052.319a4.806,4.806,0,0,1-4.192-3.335.945.945,0,0,0-.286-.413q-4.013-3.5-8.348-6.587c-.049-.035-.1-.076-.143-.114Z" transform="translate(0 -113.805)" fill="#fe5000"/>
    <path id="Path_80763" data-name="Path 80763" d="M591.593,383.379c.335,1.968.705,3.931.991,5.906.172,1.192.19,2.4.319,3.6.065.6.246,1.187.335,1.786a7.084,7.084,0,0,1-1.074,5.113,1.3,1.3,0,0,1-.1.116,6.14,6.14,0,0,1-.091-5.835,1.715,1.715,0,0,1,.317-.453,1.126,1.126,0,0,0,.3-.948,54.619,54.619,0,0,0-.779-7.225q-.152-1.027-.3-2.055Z" transform="translate(-486.752 -134.901)" fill="#fe5000"/>
    <path id="Path_80764" data-name="Path 80764" d="M449.037,437.681q1.225,1.848,2.449,3.7c.874,1.325,1.742,2.655,2.621,3.978a.583.583,0,0,0,.3.22,5.12,5.12,0,0,1,3.614,4.221,5.722,5.722,0,0,1,.083.713c.008.085,0,.172,0,.3a8.151,8.151,0,0,1-1.822-1.26,7.138,7.138,0,0,1-1.844-2.624,16.571,16.571,0,0,0-1.515-2.8c-1.153-1.818-2.261-3.665-3.391-5.5-.186-.3-.392-.589-.589-.884Z" transform="translate(-353.722 -185.654)" fill="#fe5000"/>
    <path id="Path_80765" data-name="Path 80765" d="M559.14,329.766c.428,1.884.88,3.762,1.273,5.654.189.912.245,1.851.4,2.77.092.533.288,1.047.406,1.576a6.484,6.484,0,0,1-.673,4.7.852.852,0,0,1-.073.091,6.1,6.1,0,0,1-.936-3.347,4.567,4.567,0,0,1,.873-2.652.585.585,0,0,0,.094-.353,58.95,58.95,0,0,0-1.347-7.832c-.036-.18-.077-.359-.113-.539,0-.018.011-.04.017-.06Z" transform="translate(-456.631 -84.792)" fill="#fe5000"/>
    <path id="Path_80766" data-name="Path 80766" d="M439.906,382.767q.888,1.307,1.776,2.615c.879,1.3,1.754,2.595,2.638,3.887a.647.647,0,0,0,.311.255,4.81,4.81,0,0,1,3.47,4.115c.039.2.044.408.075.714-.454-.285-.855-.508-1.225-.773a7.154,7.154,0,0,1-2.4-3.112,11.2,11.2,0,0,0-.949-1.737c-1.175-1.8-2.319-3.628-3.475-5.443-.1-.153-.2-.3-.3-.454Z" transform="translate(-345.204 -134.329)" fill="#fe5000"/>
    <path id="Path_80767" data-name="Path 80767" d="M645.8,558.208c0,1.348,0,2.7,0,4.044a59.869,59.869,0,0,1-.224,6.945c-.071.625-.178,1.247-.251,1.872-.032.278-.017.562-.029.842-.033.781-.066,1.561-.107,2.342-.008.149-.036.285-.251.307-.776.081-1.549.183-2.378.283.037-.173.053-.3.092-.415a5.837,5.837,0,0,1,1.942-2.876.92.92,0,0,0,.356-.619,48.389,48.389,0,0,0,.641-7.89c.021-1.609,0-3.219,0-4.828Z" transform="translate(-534.686 -298.303)" fill="#fe5000"/>
    <path id="Path_80768" data-name="Path 80768" d="M517.927,270.568c.374,1.188.783,2.367,1.112,3.568.372,1.358.658,2.739,1.01,4.1.154.6.413,1.168.564,1.767a5.725,5.725,0,0,1-.424,4.09,5.143,5.143,0,0,1-.883-1.793,4.539,4.539,0,0,1,.4-3.684.544.544,0,0,0,.056-.364c-.353-1.59-.7-3.181-1.085-4.763-.208-.853-.484-1.689-.729-2.533-.035-.122-.061-.247-.092-.371Z" transform="translate(-418.133 -29.464)" fill="#fe5000"/>
    <path id="Path_80769" data-name="Path 80769" d="M430.574,327.974a6.4,6.4,0,0,1-3.271-3.265,19.409,19.409,0,0,0-1.547-2.593q-1.554-2.389-3.065-4.818c.067.081.14.157.2.242q1.7,2.455,3.39,4.911c.062.09.127.177.186.268a2.762,2.762,0,0,0,1.377,1.123,4.407,4.407,0,0,1,2.643,3.512C430.525,327.543,430.542,327.737,430.574,327.974Z" transform="translate(-329.188 -73.139)" fill="#fe5000"/>
    <path id="Path_80770" data-name="Path 80770" d="M439.073,239.044c.483.856,1,1.7,1.444,2.572.788,1.537,1.532,3.1,2.309,4.638a1.209,1.209,0,0,0,.4.435,3.155,3.155,0,0,1,1.591,2.911,7.721,7.721,0,0,1-.253,1.207,3.768,3.768,0,0,1-1.889-3.8.938.938,0,0,0-.067-.46c-1.033-2.455-2.2-4.846-3.467-7.188-.049-.09-.089-.185-.133-.278Z" transform="translate(-344.441)" fill="#fe5000"/>
    <path id="Path_80771" data-name="Path 80771" d="M294.579,711.351c-.795.163-1.3-.341-1.843-.717-2.327-1.608-4.642-3.234-6.971-4.84-.7-.481-1.424-.919-2.122-1.4C287.454,706.446,290.916,709.044,294.579,711.351Z" transform="translate(-199.228 -434.933)" fill="#fe5000"/>
    <path id="Path_80772" data-name="Path 80772" d="M321.775,765.641l3.561,2.213-.036.082a1.918,1.918,0,0,1-.461-.158c-1.037-.687-2.066-1.387-3.1-2.082Z" transform="translate(-234.836 -492.178)" fill="#fe5000"/>
  </g>
</svg>
