<svg xmlns="http://www.w3.org/2000/svg" width="53.894" height="53.44" viewBox="0 0 53.894 53.44">
  <g id="Higher_Study_2" data-name="Higher Study 2" transform="translate(-159.565 -161.358)">
    <path id="Path_75" data-name="Path 75" d="M353.581,296.867l2.68-4.1a.564.564,0,0,1-.006-.075v-2.608a5.368,5.368,0,0,1-5.868-.329V292.5Z" transform="translate(-167.065 -112.408)" fill="#fe5000"/>
    <path id="Path_76" data-name="Path 76" d="M386.59,320.27l-2.71-.957-3.018,4.62,0,1.3h8.253v-1.39A3.793,3.793,0,0,0,386.59,320.27Z" transform="translate(-193.742 -138.289)" fill="#fe5000"/>
    <path id="Path_77" data-name="Path 77" d="M313.17,323.623l-3.423-4.682-2.467.95a3.81,3.81,0,0,0-2.423,3.537v1.48h8.311Z" transform="translate(-127.203 -137.963)" fill="#fe5000"/>
    <path id="Path_78" data-name="Path 78" d="M323.612,162.428a.577.577,0,0,1-.185-.071c-4.336-2.821-10.542.715-10.361,5.878v1.407a11.668,11.668,0,0,0,7.986-4.588.579.579,0,0,1,.9-.033,86.056,86.056,0,0,0,6.777,7.053v-3.405a6.369,6.369,0,0,0-5.117-6.24Z" transform="translate(-134.386 0)" fill="#fe5000"/>
    <path id="Path_79" data-name="Path 79" d="M408.843,245.58a7.034,7.034,0,0,1-2.08,4.953v1.373a3.8,3.8,0,0,0,4-3.789v-.745s-1.33-1.224-1.921-1.793Z" transform="translate(-216.421 -73.735)" fill="#fe5000"/>
    <path id="Path_80" data-name="Path 80" d="M315.135,234.019c-.553.155-1.458.3-2.033.41V238a3.79,3.79,0,0,0,3.491,3.778v-1.915a7.148,7.148,0,0,1-1.573-4.531,7.479,7.479,0,0,1,.115-1.309Z" transform="translate(-134.421 -63.614)" fill="#fe5000"/>
    <path id="Path_81" data-name="Path 81" d="M347.188,205.39c-1.377-1.379-2.73-2.832-4.028-4.324a12.482,12.482,0,0,1-5.166,3.7,6.31,6.31,0,0,0-.235,1.715c-.005,2.833,1.917,5.485,4.762,5.527,2.841-.053,4.753-2.651,4.762-5.527a6.448,6.448,0,0,0-.094-1.087Z" transform="translate(-156.008 -34.764)" fill="#fe5000"/>
    <path id="Path_82" data-name="Path 82" d="M282.34,376.14,284.758,390h18.486l2.418-13.856Zm13.2,7.451H292.46a.577.577,0,0,1,0-1.155h3.082a.577.577,0,0,1,0,1.155Z" transform="translate(-107.489 -188.041)" fill="#fe5000"/>
    <path id="Path_83" data-name="Path 83" d="M212.883,497.771H160.141a.577.577,0,0,1,0-1.155h52.743a.577.577,0,0,1,0,1.155Z" transform="translate(0 -293.518)" fill="#fe5000"/>
    <path id="Path_84" data-name="Path 84" d="M185.15,501.26h47.523v11.122H185.15Z" transform="translate(-22.4 -297.583)" fill="#fe5000"/>
    <path id="Path_85" data-name="Path 85" d="M495.83,447.941h-3.568a.577.577,0,0,1,0-1.155h3.568v-2.078h-8.175a2.65,2.65,0,0,0-2.647,2.653v0a2.65,2.65,0,0,0,2.647,2.653h8.175Z" transform="translate(-284.925 -248.073)" fill="#fe5000"/>
    <path id="Path_86" data-name="Path 86" d="M508.9,392.8H500.73v2.078H504.3a.577.577,0,0,1,0,1.155H500.73v2.078H508.9a2.65,2.65,0,0,0,2.647-2.653v0A2.65,2.65,0,0,0,508.9,392.8Z" transform="translate(-298.689 -202.627)" fill="#fe5000"/>
    <path id="Path_87" data-name="Path 87" d="M182.689,439.57a5.063,5.063,0,0,0,5.063-5.063v-1.85H177.626v1.85A5.062,5.062,0,0,0,182.689,439.57Z" transform="translate(-15.812 -237.521)" fill="#fe5000"/>
    <path id="Path_88" data-name="Path 88" d="M165.11,444.6a.591.591,0,0,1-.166-.024l-3.532-1.067a2.37,2.37,0,0,1,.682-4.638h1.016a.576.576,0,0,1,.576.577v.488a4.47,4.47,0,0,0,1.773,3.58.578.578,0,0,1,.227.459v.048a.576.576,0,0,1-.576.577Zm-3.016-4.575a1.216,1.216,0,0,0-.35,2.379l1.619.489a5.621,5.621,0,0,1-.828-2.868Z" transform="translate(-0.145 -242.961)" fill="#fe5000"/>
  </g>
</svg>
