<svg id="Layer_1" data-name="Layer 1" xmlns="http://www.w3.org/2000/svg" width="24.971" height="25" viewBox="0 0 24.971 25">
  <path id="Path_236" data-name="Path 236" d="M28.658,25A12.511,12.511,0,0,1,19.8,21.358a12.338,12.338,0,0,1-2.028-2.639.739.739,0,0,1,.071-.9.728.728,0,0,1,.529-.252.571.571,0,0,1,.265.066,1.27,1.27,0,0,1,.448.422,10.789,10.789,0,0,0,9.644,5.436h.276a10.929,10.929,0,0,0,10.427-9.006c.083-.452.128-.9.17-1.34.019-.195.039-.39.061-.583l.005-.045v-.044A11,11,0,0,0,29.787,1.55c-.441-.042-.882-.064-1.306-.064A10.615,10.615,0,0,0,19.187,6.78c-.289.446-.529.5-.71.5a1,1,0,0,1-.208-.024.635.635,0,0,1-.529-.6,1.128,1.128,0,0,1,.141-.571A12.036,12.036,0,0,1,26.724.15,15.169,15.169,0,0,1,28.815,0a12.064,12.064,0,0,1,9.966,5.234,11.165,11.165,0,0,1,2.256,6.108,12.173,12.173,0,0,1-6.283,12.006A11.89,11.89,0,0,1,28.655,25Z" transform="translate(-16.102 0)" fill="#fff"/>
  <path id="Path_237" data-name="Path 237" d="M12.419,80.368a.685.685,0,0,1-.295-.07.722.722,0,0,1-.407-.534.751.751,0,0,1,.212-.668c.683-.691,1.386-1.39,2.065-2.065l1.017-1.016c.07-.07.131-.137.216-.229l.161-.176L16.422,74.5l-1.513-.074-.265-.015c-.156-.01-.292-.018-.432-.018H.8a.769.769,0,0,1-.7-.374.706.706,0,0,1,.03-.727.6.6,0,0,1,.54-.332c.25-.01.5-.01.766-.01H14.361a3.3,3.3,0,0,0,.37-.026c.059-.006.125-.013.2-.019l1.458-.127-1.007-1.058-.161-.169c-.094-.1-.168-.176-.245-.257l-1.013-1.02q-.908-.911-1.815-1.826a.917.917,0,0,1-.291-.639.674.674,0,0,1,.216-.483.692.692,0,0,1,.488-.217.946.946,0,0,1,.644.313q2.761,2.758,5.519,5.518a1.177,1.177,0,0,1,.423.724,1.152,1.152,0,0,1-.422.717c-1.222,1.218-2.462,2.459-3.662,3.658L13.05,80.056A.951.951,0,0,1,12.419,80.368Z" transform="translate(-0.02 -61.191)" fill="#fff"/>
</svg>
